<?xml version="1.0" standalone="no"?>
<!DOCTYPE svg PUBLIC "-//W3C//DTD SVG 20010904//EN"
 "http://www.w3.org/TR/2001/REC-SVG-20010904/DTD/svg10.dtd">
<svg version="1.0" xmlns="http://www.w3.org/2000/svg"
 width="320.000000pt" height="320.000000pt" viewBox="0 0 320.000000 320.000000"
 preserveAspectRatio="xMidYMid meet">

<g transform="translate(0.000000,320.000000) scale(0.100000,-0.100000)"
fill="#000000" stroke="none">
<path d="M1558 3063 c17 -2 47 -2 65 0 17 2 3 4 -33 4 -36 0 -50 -2 -32 -4z"/>
<path d="M1454 2980 c-102 -11 -264 -49 -372 -89 -244 -89 -498 -284 -651
-501 -110 -155 -202 -377 -238 -570 -26 -141 -23 -401 5 -537 93 -435 361
-777 757 -968 109 -53 180 -76 333 -111 195 -44 469 -37 671 18 386 105 724
379 903 733 38 75 109 278 113 325 2 19 5 42 8 50 3 8 6 22 6 30 1 8 4 51 7
95 3 44 7 100 7 123 l2 44 -183 -2 c-100 0 -189 -3 -197 -6 -8 -4 -15 -1 -15
5 0 7 62 11 193 13 l192 3 -2 60 c-3 91 -25 235 -36 235 -5 0 -7 7 -4 15 17
42 -109 325 -202 455 -64 89 -207 250 -223 250 -6 0 -5 -7 3 -17 13 -16 12
-17 -3 -4 -10 7 -16 17 -13 21 11 18 -151 128 -280 190 -235 113 -532 166
-781 140z m456 -73 c167 -40 382 -129 361 -150 -6 -6 6 -18 32 -31 22 -12 43
-28 45 -36 3 -10 -2 -9 -17 5 l-23 20 -19 -24 c-25 -30 -24 -35 7 -50 15 -6
24 -14 21 -17 -3 -3 -17 2 -31 12 -15 9 -29 14 -32 12 -3 -3 10 -15 28 -27
l33 -21 15 22 c43 63 44 63 73 38 25 -22 26 -25 11 -41 -9 -10 -22 -15 -30
-12 -10 4 -12 0 -7 -13 4 -12 3 -15 -6 -10 -7 5 -10 14 -7 22 8 20 -10 26 -24
9 -10 -12 -8 -18 11 -34 l24 -20 37 37 c37 35 38 35 53 16 18 -24 18 -29 -1
-45 -14 -11 -18 -11 -28 3 -11 16 -14 15 -30 -3 -20 -24 -14 -38 9 -19 13 11
14 10 9 -4 -5 -12 -13 -16 -28 -11 -11 3 -31 7 -43 9 -12 2 -39 15 -58 30 -28
22 -39 25 -50 16 -10 -9 -15 -7 -19 7 -3 10 -16 24 -28 32 -21 13 -22 13 -10
-2 10 -12 11 -19 1 -35 -12 -19 -14 -19 -77 10 -35 16 -67 26 -70 23 -8 -7 3
-14 113 -70 44 -22 80 -45 80 -52 0 -6 4 -15 9 -20 5 -5 6 -2 1 6 -5 10 -4 12
4 7 6 -4 9 -12 5 -17 -3 -6 2 -9 12 -7 11 2 19 -3 19 -12 0 -8 9 -15 20 -15
11 -1 19 -6 18 -12 -1 -5 27 -38 63 -73 164 -156 273 -361 319 -600 15 -72 -9
-16 -34 83 -125 486 -558 817 -1067 817 -514 0 -957 -330 -1080 -806 -32 -124
-43 -320 -25 -457 22 -165 95 -344 193 -473 24 -33 36 -57 32 -68 -5 -13 -13
-7 -40 29 -19 24 -33 49 -32 56 4 14 -39 22 -47 9 -3 -6 0 -10 7 -10 7 -1 29
-25 49 -54 35 -51 35 -53 18 -74 l-17 -22 -38 48 c-48 60 -62 74 -42 41 19
-30 18 -50 -2 -74 -20 -24 -69 -47 -86 -41 -8 3 -17 5 -20 5 -7 0 -33 33 -34
44 0 5 5 5 12 1 7 -4 8 -3 4 5 -4 6 -11 9 -16 6 -11 -7 -40 40 -40 65 0 12 -4
19 -8 16 -5 -3 -9 1 -9 8 0 7 -9 26 -21 42 -32 43 -80 165 -109 279 -21 83
-26 131 -30 278 -7 246 16 390 94 577 182 441 575 750 1063 836 123 22 400 12
530 -19z m405 -227 c-3 -5 1 -10 9 -10 9 0 16 -4 16 -10 0 -13 -17 -13 -25 0
-4 6 -11 8 -16 5 -10 -7 -12 8 -2 18 10 11 25 8 18 -3z m-451 -65 c185 -46
290 -102 446 -237 142 -124 241 -266 300 -433 35 -99 62 -215 50 -215 -4 0
-13 28 -19 61 -17 84 -64 214 -105 291 -41 75 -126 192 -134 184 -8 -8 -53 35
-46 45 6 11 -115 107 -199 158 -296 180 -702 199 -1022 47 -296 -140 -496
-379 -577 -689 -19 -69 -22 -110 -22 -257 -1 -206 17 -296 87 -444 43 -90 115
-201 124 -192 3 3 -11 27 -31 54 -127 174 -193 443 -168 685 13 124 34 205 80
314 89 213 288 413 515 518 334 154 752 125 1044 -73 76 -52 224 -207 284
-299 71 -110 158 -340 146 -391 -2 -9 -9 9 -16 41 -23 104 -69 226 -118 310
-56 95 -195 242 -291 306 -315 211 -725 236 -1065 65 -118 -59 -166 -93 -265
-188 -179 -172 -276 -388 -287 -636 l-4 -105 13 115 c7 63 23 151 35 194 23
85 89 225 139 298 41 60 175 190 241 234 77 52 223 119 326 151 84 25 102 27
275 27 208 0 281 -13 425 -79 97 -44 217 -124 208 -139 -3 -6 -3 -8 1 -4 8 7
151 -143 168 -177 6 -11 -15 8 -47 43 -35 38 -61 59 -65 52 -4 -7 -13 -3 -25
10 -10 11 -27 20 -38 20 -11 0 -43 18 -72 40 -64 49 -218 122 -310 146 -107
29 -380 26 -490 -4 -84 -23 -298 -122 -278 -129 6 -2 36 10 66 27 145 81 281
115 467 114 201 0 350 -43 513 -148 55 -36 74 -61 27 -36 -14 8 -20 8 -16 1 5
-7 -29 -11 -106 -14 -103 -2 -100 -3 41 -5 124 -2 152 -5 148 -16 -3 -8 41
-59 109 -127 l114 -114 0 -125 0 -126 -72 -68 -71 -68 84 -86 84 -87 -90 87
-90 88 54 54 c51 51 52 54 31 61 -13 4 -18 10 -13 14 6 3 10 17 9 31 -1 14 6
31 16 38 9 7 16 21 15 32 -1 16 -8 20 -32 18 -16 -1 -35 -6 -42 -11 -7 -5 -16
-6 -22 -3 -5 3 -12 0 -14 -6 -3 -7 -6 10 -6 37 -1 28 -5 55 -9 62 -4 6 -6 -22
-4 -63 l4 -74 -60 -62 -60 -62 -128 -4 c-171 -4 -188 -9 -36 -11 100 -1 122
-4 122 -16 0 -9 -6 -12 -15 -8 -9 3 -15 2 -14 -3 3 -15 -13 -44 -21 -39 -4 3
-13 -2 -20 -10 -10 -12 -9 -15 4 -15 14 0 15 -4 6 -20 -10 -19 -8 -20 48 -20
49 0 66 -5 100 -29 39 -29 60 -51 47 -51 -4 0 -25 16 -48 35 l-41 35 -151 -2
-150 -3 -3 -141 -3 -140 -74 -74 c-41 -41 -75 -70 -75 -64 0 5 32 41 70 78
l70 68 -1 77 c-1 42 -4 67 -6 56 -3 -11 -9 -23 -14 -26 -5 -3 -11 -19 -12 -36
-2 -33 -8 -32 -50 9 -14 15 -20 16 -31 6 -8 -7 -12 -16 -10 -20 2 -4 0 -9 -5
-12 -5 -4 -10 56 -10 146 -1 84 -4 154 -6 157 -3 2 -6 -101 -7 -230 -2 -272
-3 -291 -12 -315 -4 -11 26 13 66 51 40 39 87 82 104 95 17 14 -16 -21 -74
-77 -57 -57 -107 -103 -111 -103 -3 0 -7 210 -9 468 -2 273 -7 468 -13 470 -5
2 -8 34 -8 70 1 58 2 62 9 29 4 -20 9 -39 11 -40 2 -2 15 -11 29 -20 l24 -17
-24 -1 -25 0 25 -10 c14 -6 64 -9 113 -7 87 3 96 1 77 -18 -6 -6 -12 -66 -13
-137 l-2 -126 22 14 c16 11 54 15 141 15 l119 0 46 47 c47 47 47 48 47 115 0
67 0 68 -45 110 l-45 43 -113 6 -112 5 111 2 111 2 47 -41 c63 -56 69 -44 7
14 l-50 47 -231 0 c-196 0 -231 -2 -236 -15 -15 -39 -24 -5 -26 98 -1 101 -2
105 -7 42 l-6 -70 -6 100 c-3 56 -10 109 -16 120 -10 17 -11 17 -24 -6 -11
-19 -15 -161 -19 -751 l-5 -727 -83 76 c-46 41 -86 73 -89 69 -3 -3 41 -51 98
-107 57 -56 93 -93 79 -83 -14 10 -64 57 -112 103 l-88 86 0 247 c0 154 4 249
10 253 6 3 10 10 10 16 0 10 -271 13 -344 3 l-46 -7 0 -251 0 -252 -74 -73
c-51 -50 -78 -71 -87 -66 -8 5 -11 5 -7 0 4 -4 1 -17 -7 -29 -33 -47 -11 -37
53 24 37 36 83 79 103 95 20 17 -11 -16 -69 -72 -57 -57 -108 -100 -113 -97
-5 3 -10 139 -11 302 l-3 297 -5 -295 c-3 -162 -7 -288 -9 -280 -2 8 -3 19 -2
23 1 5 -3 6 -9 2 -5 -3 -10 -2 -10 3 0 4 -18 33 -40 62 -22 30 -38 60 -36 67
3 7 0 12 -6 10 -15 -3 -88 140 -116 228 -82 254 -61 576 53 812 156 321 483
553 850 602 109 15 302 4 409 -24z m646 -15 c0 -5 -5 -10 -11 -10 -5 0 -7 5
-4 10 3 6 8 10 11 10 2 0 4 -4 4 -10z m-240 -17 c0 -5 23 -24 50 -43 52 -37
59 -50 36 -69 -10 -9 -25 -4 -66 24 -28 19 -57 35 -62 35 -6 0 -7 8 -4 17 4 9
1 21 -6 26 -9 6 -8 7 4 3 10 -3 20 -1 23 4 7 12 25 13 25 3z m254 -6 c-3 -8 2
-20 11 -27 8 -7 15 -17 15 -23 0 -5 -9 -2 -20 8 -20 18 -21 18 -43 -2 -27 -25
-47 -36 -47 -27 0 5 81 84 87 84 1 0 0 -6 -3 -13z m-4 -57 c0 -5 -4 -10 -9
-10 -6 0 -13 5 -16 10 -3 6 1 10 9 10 9 0 16 -4 16 -10z m92 -64 c-3 -5 -9 0
-13 11 -13 35 -29 37 -60 7 l-29 -28 22 -25 c19 -22 18 -22 -7 2 l-30 28 38
35 37 35 24 -28 c13 -15 22 -32 18 -37z m-28 -16 c-6 -5 -24 21 -24 34 0 6 6
1 14 -10 8 -10 12 -21 10 -24z m-119 -19 c52 -59 54 -64 39 -85 -12 -18 -16
-16 -67 30 -39 35 -52 53 -45 61 5 7 7 17 4 22 -16 26 42 2 69 -28z m90 18
c11 -17 -1 -21 -15 -4 -8 9 -8 15 -2 15 6 0 14 -5 17 -11z m55 -29 c-19 -16
-29 -30 -22 -30 6 0 12 -5 12 -10 0 -6 -8 -5 -20 2 -20 13 -20 14 12 40 18 15
38 27 43 27 6 0 -6 -13 -25 -29z m59 -4 c9 -11 3 -19 -26 -42 -21 -15 -32 -20
-24 -11 11 14 11 20 0 35 -13 15 -12 16 3 4 20 -16 40 -8 31 13 -7 19 1 19 16
1z m-239 -51 c19 -19 32 -35 29 -35 -3 0 -20 16 -39 35 -19 19 -32 35 -29 35
3 0 20 -16 39 -35z m313 -55 c21 -34 17 -44 -23 -65 -28 -14 -30 -14 -49 14
-12 16 -21 31 -21 34 0 6 62 47 70 47 3 0 14 -14 23 -30z m-162 -26 c5 -7 3
-11 -6 -11 -8 0 -12 4 -9 9 6 9 -10 11 -19 2 -3 -3 10 -30 30 -60 20 -30 34
-57 31 -60 -6 -6 -88 104 -88 117 0 4 10 15 22 24 18 12 24 12 27 3 2 -7 8
-18 12 -24z m246 -114 c6 -16 7 -30 2 -30 -5 0 -9 6 -9 14 0 24 -17 28 -55 12
-19 -8 -35 -11 -35 -7 0 7 59 36 80 40 3 1 11 -12 17 -29z m-27 -43 c0 -5 -4
-5 -10 -2 -5 3 -10 14 -10 23 0 15 2 15 10 2 5 -8 10 -19 10 -23z m-127 3 c22
-1 22 -1 2 -12 -11 -6 -21 -12 -23 -13 -1 -1 6 -22 17 -46 10 -24 22 -55 26
-69 14 -47 -20 0 -45 64 -16 40 -20 61 -12 64 6 2 10 9 8 15 -1 7 -1 9 1 5 3
-5 14 -8 26 -8z m182 -19 c-16 -15 -85 -41 -85 -32 0 5 17 16 38 24 43 18 60
21 47 8z m18 -41 c3 -11 1 -20 -4 -20 -5 0 -9 2 -9 4 0 2 -3 11 -6 20 -3 9 -2
16 4 16 5 0 12 -9 15 -20z m-1060 -7 c-23 -2 -64 -2 -90 0 -26 2 -7 3 42 3 50
0 71 -1 48 -3z m1032 -13 c3 -6 -6 -15 -20 -20 -33 -13 -32 -13 -38 3 -4 10 2
13 20 9 18 -3 24 -1 19 7 -4 6 -3 11 3 11 5 0 13 -5 16 -10z m54 -60 c6 -18 6
-28 1 -25 -6 4 -10 13 -10 22 0 11 -6 14 -22 9 -13 -3 -29 -6 -37 -6 -9 0 -12
-8 -8 -27 5 -26 4 -26 -9 -8 -20 27 -18 31 24 48 50 21 49 21 61 -13z m-909
-26 c0 -8 -4 -12 -10 -9 -5 3 -10 10 -10 16 0 5 5 9 10 9 6 0 10 -7 10 -16z
m878 -9 c-3 -3 -9 2 -12 12 -6 14 -5 15 5 6 7 -7 10 -15 7 -18z m-843 6 c-7
-12 22 -41 41 -41 8 0 14 -10 14 -26 0 -20 -4 -25 -16 -20 -15 6 -15 4 -3 -11
8 -9 9 -14 3 -10 -13 7 -24 -13 -24 -44 0 -20 15 -26 25 -9 3 6 21 10 40 10
41 0 85 41 78 71 -3 10 0 19 6 19 6 0 11 8 12 18 1 29 17 -18 18 -53 1 -23 -9
-41 -39 -70 -37 -36 -42 -38 -97 -36 -80 3 -92 7 -85 33 4 16 2 19 -9 13 -12
-8 -12 -6 0 9 11 13 11 20 3 28 -16 16 -16 41 0 32 7 -5 9 -2 5 9 -3 8 0 20 7
26 7 6 11 22 8 36 -2 15 0 25 7 25 7 0 10 -4 6 -9z m733 -25 c11 4 9 -1 -7
-13 -22 -19 -23 -23 -12 -72 13 -63 14 -89 2 -75 -14 16 -41 139 -31 142 6 2
10 13 10 25 1 20 2 20 11 5 5 -10 17 -15 27 -12z m162 -1 c0 -5 -24 -16 -67
-29 -13 -4 -23 -3 -23 1 0 5 19 14 43 20 23 5 43 11 45 12 1 0 2 -1 2 -4z m5
-65 c-12 -19 -22 -10 -17 16 4 22 6 24 14 10 5 -9 6 -21 3 -26z m-37 -15 c-2
-1 -14 -6 -28 -9 -23 -6 -23 -6 -7 7 9 8 17 23 18 33 0 15 2 15 10 -5 5 -13 8
-25 7 -26z m-311 -105 c-4 -16 -22 42 -31 100 -3 22 2 13 15 -25 11 -33 18
-66 16 -75z m-327 27 c0 -2 -10 -12 -22 -23 l-23 -19 19 23 c18 21 26 27 26
19z m165 -67 c-33 -33 -64 -60 -70 -60 -9 1 114 119 125 120 2 0 -22 -27 -55
-60z m535 -26 c-81 -8 -278 -8 -273 -1 2 4 73 6 156 5 84 -1 136 -3 117 -4z
m30 -101 c0 -5 -95 -9 -211 -11 -141 -1 -208 1 -204 8 7 12 415 14 415 3z m0
-55 c0 -4 -103 -8 -230 -8 -150 0 -230 4 -230 10 0 7 78 10 230 8 127 -1 230
-6 230 -10z m-1930 -2 c0 -3 -4 -8 -10 -11 -5 -3 -10 -1 -10 4 0 6 5 11 10 11
6 0 10 -2 10 -4z m310 -3 c0 -5 -42 -7 -92 -5 -168 5 -185 8 -45 10 75 1 137
-1 137 -5z m811 -11 c14 -9 47 -36 72 -58 l47 -42 0 -68 0 -68 -64 -63 -65
-63 -131 0 -131 0 -97 -87 -98 -88 265 -3 265 -2 81 77 c149 145 181 168 54
40 l-126 -127 -298 0 c-164 1 -294 4 -289 9 5 4 59 53 120 109 l111 102 125 0
c122 0 125 0 165 30 59 43 71 67 74 144 l2 67 -46 47 -47 46 -70 -2 c-45 -2
-70 1 -70 7 0 19 121 13 151 -7z m-218 1 c-7 -2 -21 -2 -30 0 -10 3 -4 5 12 5
17 0 24 -2 18 -5z m925 -40 c-60 -2 -156 -2 -215 0 -60 1 -11 3 107 3 118 0
167 -2 108 -3z m-1526 -27 c11 -17 10 -458 -1 -451 -5 3 -16 -2 -24 -10 -19
-18 -31 -20 -21 -2 6 8 3 8 -9 -1 -14 -12 -19 -12 -32 2 -9 8 -23 13 -33 10
-14 -5 -14 -4 -3 4 10 7 21 7 34 0 15 -8 18 -7 14 4 -2 7 -10 12 -16 10 -6 -1
-11 3 -11 9 0 7 -13 -2 -30 -19 -21 -23 -30 -27 -30 -16 0 9 -8 24 -18 33 -31
28 -49 65 -60 121 -16 82 -35 287 -29 304 7 19 38 22 162 17 60 -2 103 -8 107
-15z m1627 -20 c-8 -8 -397 -11 -405 -3 -4 4 86 7 201 7 115 0 206 -2 204 -4z
m-9 -53 c0 -5 -94 -8 -210 -8 -115 0 -210 3 -210 8 0 4 95 7 210 7 116 0 210
-3 210 -7z m-15 -53 c4 -7 -65 -10 -200 -10 -135 0 -204 3 -200 10 4 6 82 10
200 10 118 0 196 -4 200 -10z m-19 -52 c4 -5 -85 -7 -197 -6 -117 1 -176 4
-139 7 94 9 327 7 336 -1z m-7 -54 c2 -1 -74 -4 -168 -6 -94 -2 -171 0 -171 4
0 4 24 9 53 11 56 4 280 -3 286 -9z m-365 -105 c-138 -276 -379 -473 -679
-556 -93 -26 -113 -28 -285 -27 -167 0 -194 3 -281 26 -143 39 -356 151 -414
219 l-20 23 25 -17 c165 -115 257 -163 392 -201 498 -143 1022 84 1252 543 21
40 40 71 42 68 3 -3 -11 -38 -32 -78z m52 7 c-14 -31 -49 -94 -79 -139 -338
-519 -1052 -659 -1568 -310 -41 28 -85 63 -99 78 -31 34 -16 27 67 -37 84 -63
267 -152 368 -178 240 -62 497 -46 720 43 244 98 461 303 576 545 38 78 50 76
15 -2z m74 39 c0 -15 -74 -148 -77 -139 -5 15 55 144 67 144 6 0 10 -2 10 -5z
m-201 -97 c-216 -369 -669 -566 -1097 -478 -151 30 -285 90 -414 184 -87 62
-69 64 22 2 205 -141 394 -194 653 -183 144 5 235 25 360 77 163 68 342 217
446 373 59 88 75 102 30 25z m301 31 c-7 -11 -14 -19 -16 -16 -7 7 7 37 17 37
6 0 5 -9 -1 -21z m69 -43 c-7 -14 -16 -26 -21 -26 -5 0 -1 14 7 31 20 37 31
33 14 -5z m-84 4 c3 -5 1 -10 -4 -10 -6 0 -11 5 -11 10 0 6 2 10 4 10 3 0 8
-4 11 -10z m-402 -81 c-127 -163 -308 -280 -519 -336 -87 -23 -118 -26 -254
-26 -136 0 -167 3 -254 26 -54 15 -135 44 -180 66 -84 41 -212 128 -202 138 3
3 23 -8 44 -25 46 -37 170 -105 232 -128 219 -80 471 -84 684 -12 153 52 300
150 418 278 40 44 74 80 76 80 2 0 -18 -28 -45 -61z m447 1 c-6 -12 -14 -19
-17 -17 -2 3 1 15 7 27 6 12 14 19 17 17 2 -3 -1 -15 -7 -27z m-196 5 c-4 -8
-12 -15 -19 -15 -8 0 -33 -27 -56 -60 -23 -33 -46 -57 -50 -54 -10 6 -9 9 40
77 20 26 43 47 53 47 10 0 18 5 18 10 0 6 4 10 10 10 5 0 7 -7 4 -15z m141 -3
c-3 -3 -11 0 -18 7 -9 10 -8 11 6 5 10 -3 15 -9 12 -12z m-1632 -41 c104 -71
229 -116 374 -136 88 -11 117 -11 195 0 93 14 206 48 267 79 18 10 35 15 38
12 3 -2 -17 -16 -44 -29 -252 -126 -574 -109 -808 44 -68 44 -85 59 -69 59 3
0 24 -13 47 -29z m1580 -1 c-9 -16 -21 -30 -26 -30 -5 0 1 14 13 30 12 17 24
30 26 30 3 0 -3 -13 -13 -30z m-1602 -36 c114 -78 271 -132 425 -148 138 -15
350 33 483 108 71 41 92 43 33 4 -118 -79 -248 -119 -408 -125 -135 -6 -219 5
-333 43 -77 26 -191 88 -238 129 -41 36 -23 30 38 -11z m1159 21 c-27 -32
-175 -137 -239 -169 -171 -86 -376 -120 -561 -92 -58 8 -134 25 -170 37 -94
30 -228 102 -280 150 -25 23 -34 34 -20 25 202 -128 282 -163 437 -190 159
-28 312 -17 468 35 109 37 185 78 290 158 82 63 97 72 75 46z m461 -18 c-10
-9 -11 -8 -5 6 3 10 9 15 12 12 3 -3 0 -11 -7 -18z m40 -10 l-23 -22 17 28
c10 15 20 25 23 22 3 -3 -5 -16 -17 -28z m-612 -7 c-95 -81 -239 -147 -379
-176 -113 -23 -323 -15 -430 16 -91 26 -217 86 -283 136 -63 46 -54 56 10 11
78 -56 190 -107 292 -134 131 -35 314 -37 445 -5 102 26 227 82 306 139 57 41
81 49 39 13z m429 -22 c-14 -18 -31 -34 -39 -36 -8 -3 2 12 20 32 43 45 52 47
19 4z m70 -17 c-7 -12 -16 -21 -21 -21 -4 0 0 11 9 25 20 30 31 26 12 -4z m67
11 c-3 -3 -11 0 -18 7 -9 10 -8 11 6 5 10 -3 15 -9 12 -12z m-15 -16 c0 -3 -4
-8 -10 -11 -5 -3 -10 -1 -10 4 0 6 5 11 10 11 6 0 10 -2 10 -4z m-2064 -38
l29 -33 -32 29 c-31 28 -38 36 -30 36 2 0 16 -15 33 -32z m2078 7 c-9 -14 -20
-25 -26 -25 -11 0 23 49 35 50 4 0 0 -11 -9 -25z m-1934 -17 c0 -5 -4 -8 -10
-8 -5 0 -10 10 -10 23 0 18 2 19 10 7 5 -8 10 -18 10 -22z m1690 24 c0 -14
-109 -116 -117 -109 -4 4 18 32 47 62 52 52 70 65 70 47z m-1890 -27 c-19 -20
-21 -27 -11 -39 12 -14 45 -11 36 3 -8 13 33 5 51 -10 16 -12 17 -12 11 4 -4
10 -3 16 2 13 9 -6 26 22 22 37 -1 5 3 6 9 2 5 -3 19 -1 31 6 16 8 20 8 14 -1
-4 -7 12 -29 41 -56 60 -54 44 -59 -17 -5 -43 38 -45 38 -66 21 -21 -16 -21
-19 -5 -41 15 -23 15 -23 -1 -10 -9 7 -17 10 -17 6 0 -4 -8 -1 -17 6 -15 12
-16 12 -10 -3 4 -11 2 -15 -7 -12 -7 3 -24 -4 -37 -15 -22 -18 -23 -21 -8 -36
14 -15 18 -14 40 5 l24 21 -27 -17 c-31 -18 -37 -10 -12 17 13 14 21 16 35 8
27 -14 24 -24 -13 -48 l-33 -20 -22 21 c-13 12 -23 24 -23 28 0 3 18 19 39 36
22 16 37 32 34 37 -2 4 -22 -7 -44 -24 -33 -26 -42 -29 -55 -18 -37 31 -36 46
8 78 51 37 59 39 28 6z m2033 -6 c4 -16 3 -18 -9 -8 -7 6 -11 15 -8 20 8 13
11 11 17 -12z m-122 -28 c-10 -18 -83 -81 -94 -81 -5 0 95 99 101 100 1 0 -2
-9 -7 -19z m-1737 -46 c27 -25 44 -45 39 -45 -13 0 -93 69 -93 81 0 14 3 12
54 -36z m1833 39 c-3 -3 -12 -4 -19 -1 -8 3 -5 6 6 6 11 1 17 -2 13 -5z m48
-4 c3 -6 -4 -10 -17 -10 -18 0 -20 2 -8 10 19 12 18 12 25 0z m-1928 -157 c52
50 67 48 18 -3 -21 -22 -44 -40 -50 -40 -11 0 -130 119 -155 155 -8 11 23 -18
67 -65 l81 -85 39 38z m1793 82 c-13 -14 -28 -25 -34 -25 -5 0 3 13 19 30 16
16 31 28 33 25 3 -3 -5 -16 -18 -30z m-121 22 c-2 -1 -13 -9 -24 -17 -19 -14
-19 -14 -6 3 7 9 18 17 24 17 6 0 8 -1 6 -3z m-1393 -94 c-3 -3 -28 9 -56 27
-44 28 -53 31 -65 19 -12 -12 -7 -19 40 -49 30 -19 55 -39 55 -44 0 -8 -26 6
-91 53 -24 17 -36 33 -35 47 0 12 6 19 12 17 7 -2 15 0 19 6 4 7 29 -4 66 -30
33 -22 58 -43 55 -46z m1334 80 c0 -5 -30 -27 -65 -51 -36 -23 -65 -37 -65
-30 0 7 26 30 58 50 57 38 72 44 72 31z m-1625 -33 c-12 -13 -14 -20 -5 -20
10 0 10 -3 0 -15 -9 -11 -15 -12 -20 -5 -4 6 -15 8 -26 4 -10 -4 -3 6 16 22
19 16 37 33 39 37 1 5 6 6 9 3 3 -3 -3 -15 -13 -26z m1885 7 c0 -2 -12 -14
-27 -28 l-26 -24 19 27 c16 23 34 36 34 25z m-230 -21 c0 -11 -110 -77 -122
-73 -10 4 -9 6 2 6 8 1 35 17 60 36 41 31 60 41 60 31z m80 -21 c-13 -14 -26
-23 -28 -20 -7 7 29 45 41 45 6 0 0 -11 -13 -25z m-1655 -25 c-10 -11 -21 -17
-24 -14 -3 3 3 12 13 20 28 20 32 17 11 -6z m1680 0 c-10 -11 -23 -20 -29 -20
-6 0 0 9 14 20 32 25 38 25 15 0z m-1680 -40 c-21 -22 -41 -38 -43 -35 -3 2 0
11 6 18 7 8 8 18 4 22 -4 5 -2 5 4 2 6 -4 19 2 29 13 10 11 23 20 29 20 5 0
-7 -18 -29 -40z m1361 15 c-10 -8 -38 -22 -62 -32 -27 -11 -44 -24 -44 -35 0
-28 12 -27 78 2 80 37 81 30 1 -11 -44 -22 -65 -27 -72 -20 -6 6 -20 11 -31
12 -12 0 -15 3 -8 6 6 2 12 13 12 22 0 13 21 27 68 48 67 30 94 34 58 8z
m-1027 -11 c34 -15 61 -31 61 -35 0 -13 -3 -12 -66 16 -45 20 -59 23 -66 13
-13 -22 -10 -24 53 -52 34 -15 59 -29 56 -32 -5 -6 -137 52 -137 60 0 13 24
56 31 56 4 0 35 -12 68 -26z m1091 16 c-20 -13 -33 -13 -25 0 3 6 14 10 23 10
15 0 15 -2 2 -10z m295 0 c-3 -5 -16 -15 -28 -21 -22 -12 -22 -12 -3 10 19 21
43 30 31 11z m-1654 -17 c-5 -10 -21 -29 -36 -43 -22 -21 -25 -22 -19 -5 7 18
6 19 -12 5 -19 -14 -19 -14 0 7 10 13 22 20 27 17 5 -2 14 4 21 16 16 24 32
27 19 3z m9 -53 c-30 -38 -49 -53 -34 -27 21 36 47 67 56 67 5 0 -5 -18 -22
-40z m1511 23 c13 -16 12 -17 -3 -4 -17 13 -22 21 -14 21 2 0 10 -8 17 -17z
m-41 -81 c0 -4 -5 1 -11 11 -8 13 -14 15 -29 7 -27 -15 -38 -12 -17 5 14 10
17 20 12 37 -5 15 1 10 19 -15 14 -21 26 -41 26 -45z m70 48 c-19 -17 -39 -30
-45 -30 -5 0 6 14 25 30 19 16 40 29 45 29 6 0 -6 -13 -25 -29z m-1513 -12
c-3 -7 -5 -2 -5 12 0 14 2 19 5 13 2 -7 2 -19 0 -25z m53 25 c0 -5 -14 -24
-31 -43 l-30 -35 23 42 c21 39 38 55 38 36z m437 -37 c13 -12 -19 -12 -70 1
-43 11 -62 12 -70 4 -16 -16 0 -28 58 -42 28 -7 55 -17 60 -22 6 -6 2 -7 -10
-4 -109 29 -136 39 -132 50 2 7 -3 18 -12 25 -15 11 -15 12 0 7 9 -3 21 0 27
8 10 12 22 12 79 -4 36 -10 68 -20 70 -23z m603 35 c0 -5 -26 -17 -57 -26 -81
-22 -83 -23 -83 -35 0 -5 -6 -10 -14 -10 -9 0 -12 7 -9 20 4 13 19 23 47 30
22 6 52 15 66 20 34 12 50 12 50 1z m-1000 -26 c7 -9 10 -18 6 -22 -3 -3 -6
-1 -6 5 0 7 -7 12 -15 12 -8 0 -15 5 -15 10 0 15 16 12 30 -5z m1263 -15 c3
-11 3 -20 1 -20 -2 0 -8 9 -14 20 -6 11 -7 20 -2 20 6 0 12 -9 15 -20z m-1263
-30 c0 -4 -8 -14 -17 -23 -16 -14 -21 -14 -43 -1 l-25 15 27 -5 c29 -7 49 10
24 20 -9 3 -16 10 -16 15 0 5 11 3 25 -3 14 -6 25 -14 25 -18z m71 14 c17 -8
29 -18 26 -21 -3 -2 -14 0 -25 6 -30 16 -38 14 -51 -16 -10 -21 -9 -28 1 -34
21 -14 35 -10 51 14 l16 22 -6 -22 c-9 -38 -28 -46 -63 -28 l-31 16 22 39 c13
22 24 40 26 40 2 0 18 -7 34 -16z m476 10 c29 -4 50 -11 47 -16 -4 -5 -33 -7
-69 -3 -54 6 -63 5 -69 -10 -3 -10 -5 -20 -2 -22 2 -3 35 -8 73 -12 48 -6 56
-9 28 -10 -62 -1 -115 10 -115 25 0 8 -6 14 -12 15 -10 0 -10 2 0 6 6 2 12 11
12 19 0 16 25 17 107 8z m253 -3 c0 -4 -31 -12 -70 -15 -62 -6 -70 -10 -70
-28 0 -20 4 -21 73 -15 42 3 64 2 52 -3 -38 -16 -124 -11 -143 8 -16 16 -17
20 -3 33 8 8 26 17 41 20 39 10 120 10 120 0z m420 5 c0 -4 -59 -36 -67 -36
-2 0 -1 5 2 11 10 15 65 36 65 25z m-216 -16 c-12 -12 -133 -40 -138 -31 -3 4
5 8 17 9 12 1 42 8 67 16 56 18 67 19 54 6z m-894 -60 c-11 -22 -22 -40 -24
-40 -3 0 3 18 11 40 9 22 20 40 25 40 4 0 -1 -18 -12 -40z m1116 31 c-3 -5
-15 -11 -26 -14 -17 -4 -19 -3 -9 9 12 15 44 20 35 5z m-1056 -51 c-20 -39
-38 -56 -26 -24 4 10 -1 22 -11 31 -17 13 -17 14 3 8 14 -4 24 0 28 10 3 8 10
15 16 15 6 0 1 -18 -10 -40z m1080 32 c0 -10 -45 -32 -63 -32 -7 1 4 9 23 20
41 23 40 22 40 12z m-160 -22 c-19 -12 -30 -12 -30 -1 0 10 31 20 40 14 2 -2
-2 -8 -10 -13z m64 -6 c3 -8 2 -12 -4 -9 -6 3 -10 10 -10 16 0 14 7 11 14 -7z
m-806 -10 c32 -9 27 -21 -7 -16 -23 3 -30 0 -36 -18 -9 -30 -17 -18 -9 14 6
27 14 30 52 20z m527 -19 c-40 -14 -61 -11 -35 5 8 6 29 10 45 9 29 0 29 0
-10 -14z m-425 -5 c11 -7 7 -10 -17 -10 -17 0 -35 5 -38 10 -8 13 35 13 55 0z
m365 0 c3 -5 1 -10 -4 -10 -6 0 -11 5 -11 10 0 6 2 10 4 10 3 0 8 -4 11 -10z
m-275 -10 c0 -5 -13 -8 -30 -7 -39 3 -39 17 0 17 17 0 30 -4 30 -10z m90 0 c0
-5 -17 -9 -37 -9 -38 1 -38 1 -8 9 43 11 45 11 45 0z m125 0 c3 -5 1 -10 -4
-10 -6 0 -11 5 -11 10 0 6 2 10 4 10 3 0 8 -4 11 -10z m-394 -49 c-9 -16 -16
-18 -42 -11 -46 13 -50 24 -8 16 34 -6 37 -4 44 21 6 20 9 23 12 11 2 -9 -1
-26 -6 -37z m356 2 c-3 -10 -5 -2 -5 17 0 19 2 27 5 18 2 -10 2 -26 0 -35z
m101 20 c0 -10 1 -25 3 -33 3 -11 -5 -15 -31 -15 -28 0 -36 4 -38 21 -2 16 5
23 30 31 18 6 34 11 35 12 1 1 1 -7 1 -16z m-368 -20 c0 -29 -18 -37 -51 -24
-23 9 -23 10 9 10 34 1 46 21 13 21 -11 0 -23 5 -26 10 -4 6 5 10 24 8 25 -2
31 -7 31 -25z m468 -8 c-9 -8 -68 -15 -68 -8 0 5 10 9 23 10 12 1 27 9 32 18
9 14 10 14 13 -1 2 -8 2 -17 0 -19z m-383 4 c9 -27 -6 -42 -36 -37 -15 2 -25
11 -26 23 -2 11 0 14 3 8 7 -15 54 -17 54 -3 0 6 -10 15 -22 20 l-23 9 22 0
c14 1 24 -7 28 -20z m95 -10 c0 -28 -2 -30 -32 -27 -17 2 -34 9 -36 17 -3 10
0 11 9 5 31 -19 49 -15 49 11 0 14 2 25 5 25 3 0 5 -14 5 -31z m90 -19 c0 -5
-13 -10 -30 -10 -16 0 -30 5 -30 10 0 6 14 10 30 10 17 0 30 -4 30 -10z"/>
<path d="M1590 2900 c0 -5 9 -10 20 -10 11 0 20 5 20 10 0 6 -9 10 -20 10 -11
0 -20 -4 -20 -10z"/>
<path d="M1648 2865 c-2 -25 0 -45 4 -45 5 0 8 16 8 35 0 24 5 35 15 35 8 0
15 5 15 10 0 6 -9 10 -19 10 -15 0 -20 -9 -23 -45z"/>
<path d="M1425 2890 c-8 -13 35 -13 55 0 11 7 7 10 -17 10 -17 0 -35 -4 -38
-10z"/>
<path d="M1705 2890 c-4 -6 3 -10 14 -10 25 0 27 6 6 13 -8 4 -17 2 -20 -3z"/>
<path d="M1353 2883 c-13 -2 -23 -9 -23 -15 0 -5 7 -7 16 -4 9 3 22 6 30 6 8
0 14 5 14 10 0 6 -3 9 -7 9 -5 -1 -18 -4 -30 -6z"/>
<path d="M1854 2863 c-10 -49 -13 -55 -26 -47 -9 5 -8 2 1 -10 18 -22 27 -11
36 42 7 46 -1 58 -11 15z"/>
<path d="M1762 2860 c0 -14 2 -19 5 -12 2 6 2 18 0 25 -3 6 -5 1 -5 -13z"/>
<path d="M1256 2861 c-11 -4 -15 -10 -10 -13 5 -4 20 0 34 8 26 14 9 18 -24 5z"/>
<path d="M1591 2853 c-1 -27 -8 -28 -35 -6 -18 15 -18 14 1 -7 25 -27 49 -17
40 16 -4 16 -5 15 -6 -3z"/>
<path d="M1783 2840 c-6 -17 -7 -30 -2 -30 13 0 28 35 20 48 -4 7 -11 0 -18
-18z"/>
<path d="M1940 2858 c0 -7 -3 -24 -6 -38 -4 -18 -3 -21 4 -10 17 27 24 60 13
60 -6 0 -11 -6 -11 -12z"/>
<path d="M1435 2850 c-7 -12 2 -12 30 0 19 8 19 9 -2 9 -12 1 -25 -3 -28 -9z"/>
<path d="M1695 2842 c-7 -20 -4 -21 23 -7 22 12 22 13 3 18 -12 3 -22 -1 -26
-11z"/>
<path d="M1521 2834 c0 -11 3 -14 6 -6 3 7 2 16 -1 19 -3 4 -6 -2 -5 -13z"/>
<path d="M2022 2823 c-6 -15 -14 -39 -17 -53 -11 -40 11 -11 25 33 14 45 8 61
-8 20z"/>
<path d="M1160 2830 c-18 -12 -2 -12 25 0 13 6 15 9 5 9 -8 0 -22 -4 -30 -9z"/>
<path d="M1270 2820 c-13 -9 -13 -10 0 -10 8 0 22 5 30 10 13 9 13 10 0 10 -8
0 -22 -5 -30 -10z"/>
<path d="M1395 2821 c-3 -6 -15 -11 -25 -11 -10 0 -22 -5 -25 -10 -4 -7 3 -8
22 -4 31 7 50 21 41 29 -3 4 -9 2 -13 -4z"/>
<path d="M1452 2823 c-18 -2 -30 -8 -28 -12 7 -10 66 -1 66 10 0 5 -1 8 -2 7
-2 0 -18 -3 -36 -5z"/>
<path d="M1745 2820 c-3 -5 -1 -10 4 -10 6 0 11 5 11 10 0 6 -2 10 -4 10 -3 0
-8 -4 -11 -10z"/>
<path d="M2052 2796 c-6 -14 -8 -26 -3 -26 5 0 16 -3 25 -6 9 -3 16 -1 16 5 0
6 -8 11 -17 11 -11 0 -14 3 -7 10 5 5 19 7 31 4 19 -5 20 -9 11 -30 -13 -27
-16 -28 -52 -14 -14 5 -26 6 -26 2 0 -4 34 -21 76 -38 l75 -32 24 36 c24 36
22 61 -8 78 -9 5 -9 4 1 -7 17 -18 15 -32 -9 -63 -19 -25 -22 -25 -50 -11 -34
18 -33 16 -15 59 10 23 10 33 2 34 -6 1 -22 4 -37 7 -20 5 -27 2 -37 -19z"/>
<path d="M1285 2793 c-11 -3 -24 -10 -30 -15 -7 -7 -2 -9 15 -4 14 3 31 6 38
6 6 0 12 5 12 10 0 10 -3 11 -35 3z"/>
<path d="M1195 2767 c-21 -11 -34 -22 -28 -24 15 -5 73 25 73 37 0 6 -1 9 -2
9 -2 -1 -21 -11 -43 -22z"/>
<path d="M1935 2775 c38 -18 55 -18 55 -2 0 7 -16 13 -43 14 l-42 1 30 -13z"/>
<path d="M2135 2760 c-9 -16 -11 -30 -6 -30 5 0 13 9 16 21 6 16 12 19 33 15
26 -6 26 -6 8 9 -27 21 -33 19 -51 -15z"/>
<path d="M1090 2760 c-13 -8 -12 -10 3 -10 9 0 17 5 17 10 0 12 -1 12 -20 0z"/>
<path d="M1578 2744 c-4 -17 -16 -22 -65 -28 -69 -8 -143 1 -144 18 -1 6 -4 0
-8 -13 -7 -27 -63 -49 -146 -56 -27 -2 -51 -9 -53 -15 -5 -15 -101 -62 -132
-65 -35 -4 -60 -15 -60 -29 0 -12 -108 -91 -125 -91 -12 0 -41 -26 -38 -34 1
-3 -21 -30 -50 -59 -36 -36 -58 -51 -70 -48 -18 4 -18 4 -2 -14 21 -24 34 -18
94 43 31 33 42 51 38 66 -5 21 13 34 36 25 19 -7 140 84 133 101 -6 16 15 26
41 19 27 -7 127 41 151 72 17 24 22 26 36 15 22 -18 152 13 167 40 11 21 35
25 41 7 6 -17 148 -11 169 8 8 8 21 14 27 14 7 0 12 5 12 10 0 6 -9 10 -19 10
-11 0 -21 6 -23 12 -3 7 -7 3 -10 -8z"/>
<path d="M1798 2754 c-5 -4 -8 -16 -8 -27 0 -18 -5 -19 -75 -15 -72 5 -112 -6
-63 -16 72 -15 135 -16 162 -2 22 11 25 16 13 23 -8 4 -16 16 -18 26 -2 11 -7
15 -11 11z"/>
<path d="M970 2735 c0 -9 77 -44 84 -38 11 12 6 22 -8 17 -8 -3 -28 2 -45 11
-17 8 -31 13 -31 10z"/>
<path d="M2275 2720 c-4 -6 -10 -8 -15 -5 -4 3 -13 -1 -19 -9 -9 -10 -8 -15 3
-19 9 -4 21 4 30 19 9 13 14 24 12 24 -3 0 -8 -5 -11 -10z"/>
<path d="M886 2704 c-26 -19 -17 -26 13 -10 13 7 20 16 15 19 -5 3 -18 -1 -28
-9z"/>
<path d="M2000 2686 c-11 -30 -18 -31 -84 -11 -58 18 -66 18 -66 5 0 -15 131
-51 162 -45 27 6 40 25 17 25 -6 0 -8 8 -4 19 9 30 -14 36 -25 7z"/>
<path d="M980 2669 c0 -5 5 -7 10 -4 6 3 10 8 10 11 0 2 -4 4 -10 4 -5 0 -10
-5 -10 -11z"/>
<path d="M923 2643 l-33 -25 -21 23 -20 24 17 -27 c9 -16 19 -28 23 -28 13 0
71 40 71 50 0 13 0 13 -37 -17z"/>
<path d="M783 2637 c-18 -12 -32 -25 -33 -29 0 -9 68 30 76 43 9 15 -9 9 -43
-14z"/>
<path d="M2371 2646 c-9 -11 -8 -15 5 -20 23 -9 38 8 21 23 -11 9 -17 8 -26
-3z"/>
<path d="M2437 2604 c-8 -8 1 -24 14 -24 5 0 9 7 9 15 0 15 -12 20 -23 9z"/>
<path d="M770 2530 c-14 -10 -22 -21 -19 -24 3 -3 16 5 29 19 28 30 24 32 -10
5z"/>
<path d="M649 2521 c-13 -11 -21 -22 -18 -25 3 -3 16 5 29 19 28 30 22 33 -11
6z"/>
<path d="M699 2464 l-34 -37 32 23 c18 13 34 29 37 37 8 20 3 17 -35 -23z"/>
<path d="M570 2435 c-13 -14 -19 -25 -14 -25 8 1 50 50 41 50 -2 0 -14 -11
-27 -25z"/>
<path d="M632 2393 l-21 -28 -33 18 -33 17 30 -25 30 -25 29 30 c17 16 27 32
24 35 -3 3 -15 -7 -26 -22z"/>
<path d="M460 2280 c0 -5 5 -10 11 -10 5 0 7 5 4 10 -3 6 -8 10 -11 10 -2 0
-4 -4 -4 -10z"/>
<path d="M515 2280 l-30 -8 32 -1 c17 0 35 4 38 9 7 11 3 11 -40 0z"/>
<path d="M647 2238 c-13 -18 -32 -46 -42 -61 -11 -17 -25 -27 -34 -24 -11 3
-16 -3 -16 -18 0 -20 2 -20 28 -7 31 16 112 128 98 137 -5 3 -21 -9 -34 -27z"/>
<path d="M501 2231 c-8 -5 -9 -11 -3 -15 5 -3 12 1 16 9 6 17 6 18 -13 6z"/>
<path d="M406 2204 c-9 -23 -4 -24 17 -2 13 14 14 18 3 18 -8 0 -17 -7 -20
-16z"/>
<path d="M473 2164 c-12 -19 -18 -34 -13 -34 9 0 44 59 38 65 -2 1 -13 -13
-25 -31z"/>
<path d="M397 2159 c7 -7 15 -10 18 -7 3 3 -2 9 -12 12 -14 6 -15 5 -6 -5z"/>
<path d="M370 2125 c-7 -9 -10 -18 -7 -21 3 -3 10 4 17 15 13 25 8 27 -10 6z"/>
<path d="M441 2094 c-12 -27 -23 -28 -86 -9 -11 3 0 -4 25 -15 l45 -21 17 21
c10 12 18 28 18 36 0 21 -5 17 -19 -12z"/>
<path d="M530 2029 c-26 -57 -36 -70 -51 -66 -11 3 -19 1 -19 -3 0 -12 37 -23
50 -15 18 11 71 138 62 147 -5 5 -23 -23 -42 -63z"/>
<path d="M408 2014 c-12 -26 -14 -26 -75 -9 -10 3 -4 -1 12 -9 45 -23 62 -19
74 14 12 37 5 40 -11 4z"/>
<path d="M296 1925 c-9 -26 -7 -32 5 -12 6 10 9 21 6 23 -2 3 -7 -2 -11 -11z"/>
<path d="M371 1900 c-9 -26 -14 -30 -33 -25 -59 17 -63 17 -52 6 5 -6 27 -12
49 -14 35 -2 39 1 46 27 11 41 4 45 -10 6z"/>
<path d="M470 1848 c-20 -89 -19 -88 -53 -89 -24 -1 -26 -3 -9 -6 12 -2 22 -8
22 -13 0 -18 40 4 45 24 28 123 29 136 16 136 -5 0 -14 -24 -21 -52z"/>
<path d="M323 1690 c-13 -5 -23 -16 -23 -25 0 -12 5 -10 25 7 14 12 25 23 25
25 0 4 0 4 -27 -7z"/>
<path d="M440 1656 c0 -78 -10 -106 -37 -106 -14 0 -21 -4 -18 -10 4 -6 11 -8
16 -5 5 4 13 -4 18 -17 7 -15 10 -17 10 -7 1 9 8 22 16 29 17 14 22 160 5 160
-5 0 -10 -20 -10 -44z"/>
<path d="M250 1668 c0 -17 3 -19 9 -9 5 7 15 17 22 22 10 6 8 9 -8 9 -17 0
-23 -6 -23 -22z"/>
<path d="M285 1630 l-50 -7 53 -1 c29 -1 52 2 52 8 0 6 -1 9 -2 8 -2 0 -25 -4
-53 -8z"/>
<path d="M253 1585 c-9 -24 1 -27 15 -5 8 13 8 20 2 20 -6 0 -13 -7 -17 -15z"/>
<path d="M295 1590 c-3 -5 -1 -10 4 -10 6 0 11 5 11 10 0 6 -2 10 -4 10 -3 0
-8 -4 -11 -10z"/>
<path d="M329 1570 c-3 -21 -11 -26 -49 -31 l-45 -6 48 -1 c50 -2 63 9 55 45
-4 14 -6 12 -9 -7z"/>
<path d="M328 1493 c-3 -25 -8 -29 -48 -33 -25 -3 -40 -8 -35 -11 6 -3 29 -4
53 -1 40 4 42 5 42 38 0 41 -7 45 -12 7z"/>
<path d="M250 1495 c0 -8 5 -15 10 -15 6 0 10 7 10 15 0 8 -4 15 -10 15 -5 0
-10 -7 -10 -15z"/>
<path d="M290 1495 c0 -8 4 -15 8 -15 5 0 9 7 9 15 0 8 -4 15 -9 15 -4 0 -8
-7 -8 -15z"/>
<path d="M444 1425 c7 -71 7 -71 -21 -81 l-28 -10 27 -6 c50 -10 60 8 47 82
-16 93 -33 103 -25 15z"/>
<path d="M339 1405 c-3 -13 -19 -23 -49 -32 l-45 -13 48 4 c56 4 60 7 55 38
-4 20 -5 21 -9 3z"/>
<path d="M316 1341 c-4 -7 -5 -15 -2 -18 9 -9 19 4 14 18 -4 11 -6 11 -12 0z"/>
<path d="M271 1324 c0 -11 3 -14 6 -6 3 7 2 16 -1 19 -3 4 -6 -2 -5 -13z"/>
<path d="M351 1329 c-1 -18 -21 -29 -51 -29 -10 0 -22 -5 -25 -11 -5 -7 5 -8
32 -3 46 8 56 16 50 40 -4 15 -5 16 -6 3z"/>
<path d="M470 1289 c0 -9 7 -38 15 -65 19 -64 19 -63 -11 -74 -31 -12 -21 -34
12 -26 15 4 24 2 24 -5 0 -7 3 -9 7 -5 15 15 12 54 -8 111 -24 64 -39 89 -39
64z"/>
<path d="M362 1260 c3 -21 -3 -26 -34 -34 -21 -5 -38 -13 -38 -18 0 -10 7 -10
53 3 38 10 47 29 27 59 -8 12 -10 10 -8 -10z"/>
<path d="M383 1137 c-25 -11 -28 -24 -13 -47 8 -13 10 -12 10 4 0 10 8 25 17
32 24 17 14 24 -14 11z"/>
<path d="M315 1110 c-3 -5 1 -10 9 -10 8 0 18 5 21 10 3 6 -1 10 -9 10 -8 0
-18 -4 -21 -10z"/>
<path d="M537 1103 c-3 -5 7 -32 23 -60 28 -52 28 -52 8 -70 -20 -17 -21 -17
-34 2 -32 49 -44 56 -22 15 27 -52 50 -60 88 -31 20 15 30 17 33 8 4 -9 6 -9
6 0 1 7 -8 17 -20 23 -12 7 -18 18 -15 26 3 9 1 12 -4 9 -6 -3 -10 -3 -10 2 0
17 -47 85 -53 76z"/>
<path d="M383 1071 c-48 -19 -64 -31 -39 -31 26 0 86 28 86 39 0 6 -1 11 -2
10 -2 -1 -22 -9 -45 -18z"/>
<path d="M375 1025 c-16 -8 -23 -14 -15 -14 8 0 26 6 40 14 32 18 15 18 -25 0z"/>
<path d="M410 1013 c-19 -8 -36 -16 -38 -18 -7 -6 11 -54 18 -50 5 3 6 13 3
24 -3 12 2 21 14 25 10 3 23 9 30 12 6 3 17 -4 23 -15 9 -18 6 -23 -30 -41
-22 -11 -38 -25 -35 -31 9 -14 85 31 85 50 0 9 -8 26 -18 37 -16 20 -19 21
-52 7z"/>
<path d="M463 923 c-24 -13 -43 -29 -43 -35 0 -5 17 0 37 12 l37 22 18 -22
c10 -13 16 -26 12 -29 -3 -3 -12 2 -19 12 -11 15 -17 16 -34 7 -24 -12 -25
-19 -7 -43 13 -17 15 -17 50 4 29 17 33 23 23 35 -29 32 -33 40 -29 52 5 15 6
15 -45 -15z m30 -57 c6 -16 -2 -28 -14 -20 -12 7 -11 34 0 34 5 0 11 -6 14
-14z"/>
<path d="M510 834 c-61 -43 -53 -61 8 -19 20 14 38 21 40 15 2 -5 8 -10 13
-10 5 0 4 9 -3 20 -15 24 -14 24 -58 -6z"/>
<path d="M1510 2529 c-151 -13 -276 -52 -406 -124 -95 -53 -72 -55 27 -1 161
86 337 123 534 113 215 -11 400 -84 573 -224 24 -20 45 -33 48 -30 8 7 -87 83
-167 132 -173 107 -389 154 -609 134z"/>
<path d="M1475 2443 c-101 -13 -254 -66 -332 -114 -51 -32 -31 -36 22 -5 126
74 276 111 450 109 159 -1 245 -21 394 -93 57 -28 99 -44 92 -36 -32 39 -231
117 -342 135 -61 10 -220 12 -284 4z"/>
<path d="M1485 2401 c-96 -16 -181 -42 -262 -81 -46 -21 -83 -43 -83 -48 0 -4
34 9 76 29 135 66 217 84 389 84 159 0 214 -10 336 -59 32 -13 61 -21 64 -18
8 9 -99 51 -184 73 -85 22 -258 32 -336 20z"/>
<path d="M1011 2322 c-7 -14 -11 -115 -11 -316 0 -273 4 -320 25 -286 3 6 25
11 48 11 28 1 33 3 16 6 -17 3 -29 12 -33 26 -3 12 -6 139 -6 283 0 204 -3
264 -14 279 -13 18 -14 18 -25 -3z"/>
<path d="M2375 2290 c10 -11 20 -20 23 -20 3 0 -3 9 -13 20 -10 11 -20 20 -23
20 -3 0 3 -9 13 -20z"/>
<path d="M1668 2273 c7 -3 16 -2 19 1 4 3 -2 6 -13 5 -11 0 -14 -3 -6 -6z"/>
<path d="M734 2055 c-42 -73 -81 -175 -97 -255 -18 -91 -32 -207 -23 -199 4 3
11 46 17 95 12 102 53 232 104 334 40 79 39 93 -1 25z"/>
<path d="M727 1953 c-37 -85 -44 -113 -71 -270 l-5 -33 57 2 c57 2 57 2 10 5
-39 3 -48 8 -48 23 0 43 33 170 64 247 37 94 32 114 -7 26z"/>
<path d="M747 1898 c-23 -62 -35 -107 -42 -155 l-7 -43 34 1 c30 2 31 2 5 6
-26 4 -27 7 -21 41 3 20 17 70 30 111 26 79 27 111 1 39z"/>
<path d="M695 1610 l-60 -7 63 -1 c36 -1 62 2 62 8 0 6 -1 9 -2 8 -2 -1 -30
-4 -63 -8z"/>
<path d="M633 1553 c26 -2 67 -2 90 0 23 2 2 3 -48 3 -49 0 -68 -1 -42 -3z"/>
<path d="M573 1508 c-6 -11 14 -148 33 -222 16 -65 106 -257 128 -275 11 -9
14 -7 12 13 0 13 -5 24 -10 23 -29 -6 -127 244 -141 358 -3 28 -8 60 -11 73
-4 22 -2 22 86 22 49 0 90 3 90 8 0 9 -181 9 -187 0z"/>
<path d="M624 1410 c3 -30 12 -82 21 -115 16 -63 92 -231 100 -223 3 3 -13 43
-34 89 -38 80 -81 224 -81 268 0 19 6 21 65 21 36 0 65 3 65 8 0 4 -32 7 -71
7 l-71 0 6 -55z"/>
<path d="M665 1410 c-4 -6 13 -10 44 -10 27 0 53 5 56 10 4 6 -13 10 -44 10
-27 0 -53 -4 -56 -10z"/>
<path d="M671 1372 c-2 -46 82 -263 95 -249 3 3 -5 25 -17 49 -13 23 -35 84
-50 133 -15 50 -28 80 -28 67z"/>
<path d="M710 1360 c0 -5 11 -10 24 -10 14 0 28 5 31 10 4 6 -7 10 -24 10 -17
0 -31 -4 -31 -10z"/>
<path d="M1402 1165 l-1 -130 80 -73 79 -74 0 126 c0 124 0 126 -20 116 -11
-6 -17 -16 -14 -22 5 -8 1 -9 -11 -5 -9 4 -25 2 -33 -5 -13 -11 -15 -10 -10 4
6 14 2 15 -22 8 -28 -8 -29 -7 -35 33 -3 23 -7 67 -8 97 -2 30 -4 -3 -5 -75z"/>
<path d="M2686 2294 l-28 -16 20 -20 c19 -19 21 -19 45 -3 22 14 24 19 14 36
-14 23 -14 23 -51 3z"/>
<path d="M546 741 c-3 -5 1 -12 10 -15 8 -3 12 -10 9 -16 -3 -6 1 -7 10 -4 14
6 14 8 -1 25 -20 22 -21 22 -28 10z"/>
<path d="M1740 244 c0 -10 7 -14 22 -12 32 5 35 28 4 28 -17 0 -26 -5 -26 -16z"/>
<path d="M2520 2734 c76 -65 188 -180 229 -234 l33 -45 -31 33 c-17 18 -36 30
-40 27 -5 -3 -17 2 -25 11 -9 8 -16 11 -16 6 0 -5 10 -17 21 -28 36 -32 166
-235 205 -319 95 -205 135 -388 136 -610 0 -178 -17 -300 -66 -447 -69 -213
-178 -389 -336 -549 -129 -130 -211 -191 -360 -268 -223 -116 -415 -163 -665
-164 -339 -1 -617 92 -891 298 -108 82 -103 79 -99 49 l2 -25 -31 28 c-93 83
-123 115 -176 183 -31 41 -72 99 -89 128 -35 56 -51 70 -27 23 36 -69 171
-234 264 -322 524 -497 1313 -557 1912 -145 101 69 258 222 335 326 76 100
171 280 214 402 55 158 75 291 75 488 0 193 -12 279 -64 439 -53 164 -132 314
-239 456 -58 78 -203 221 -272 269 l-54 37 55 -47z"/>
<path d="M629 2723 c-13 -16 -12 -17 4 -4 9 7 17 15 17 17 0 8 -8 3 -21 -13z"/>
<path d="M515 2618 l-70 -73 73 70 c39 38 72 71 72 72 0 8 -11 -2 -75 -69z"/>
<path d="M409 2503 c-13 -16 -12 -17 4 -4 9 7 17 15 17 17 0 8 -8 3 -21 -13z"/>
<path d="M101 1364 c0 -11 3 -14 6 -6 3 7 2 16 -1 19 -3 4 -6 -2 -5 -13z"/>
<path d="M111 1325 c-3 -67 137 -455 164 -455 3 0 -2 14 -10 31 -52 99 -117
287 -148 424 l-5 20 -1 -20z"/>
</g>
</svg>
